HIERARCHY
ROOT Hips
{
	OFFSET -0.001795 -0.223333 0.028219
	CHANNELS 6 Xposition Yposition Zposition Zrotation Yrotation Xrotation 
	JOINT LeftUpLeg
	{
		OFFSET 0.069520 -0.091406 -0.006815
		CHANNELS 3 Zrotation Yrotation Xrotation
		JOINT LeftLeg
		{
			OFFSET 0.034277 -0.375199 -0.004496
			CHANNELS 3 Zrotation Yrotation Xrotation
			JOINT LeftFoot
			{
				OFFSET -0.013596 -0.397961 -0.043693
				CHANNELS 3 Zrotation Yrotation Xrotation
				JOINT LeftToe
				{
					OFFSET 0.026358 -0.055791 0.119288
					CHANNELS 3 Zrotation Yrotation Xrotation
					End Site
					{
						OFFSET 0.000000 0.000000 0.000000
					}
				}
			}
		}
	}
	JOINT RightUpLeg
	{
		OFFSET -0.067670 -0.090522 -0.004320
		CHANNELS 3 Zrotation Yrotation Xrotation
		JOINT RightLeg
		{
			OFFSET -0.038290 -0.382569 -0.008850
			CHANNELS 3 Zrotation Yrotation Xrotation
			JOINT RightFoot
			{
				OFFSET 0.015774 -0.398415 -0.042312
				CHANNELS 3 Zrotation Yrotation Xrotation
				JOINT RightToe
				{
					OFFSET -0.025372 -0.048144 0.123348
					CHANNELS 3 Zrotation Yrotation Xrotation
					End Site
					{
						OFFSET 0.000000 0.000000 0.000000
					}
				}
			}
		}
	}
	JOINT Spine
	{
		OFFSET -0.002533 0.108963 -0.026696
		CHANNELS 3 Zrotation Yrotation Xrotation
		JOINT Spine1
		{
			OFFSET 0.005487 0.135180 0.001092
			CHANNELS 3 Zrotation Yrotation Xrotation
			JOINT Spine2
			{
				OFFSET 0.001457 0.052922 0.025425
				CHANNELS 3 Zrotation Yrotation Xrotation
				JOINT Neck
				{
					OFFSET -0.002778 0.213870 -0.042857
					CHANNELS 3 Zrotation Yrotation Xrotation
					JOINT Head
					{
						OFFSET 0.005152 0.064970 0.051349
						CHANNELS 3 Zrotation Yrotation Xrotation
						End Site
						{
							OFFSET 0.000000 0.000000 0.000000
						}
					}
				}
				JOINT LeftShoulder
				{
					OFFSET 0.078845 0.121749 -0.034090
					CHANNELS 3 Zrotation Yrotation Xrotation
					JOINT LeftArm
					{
						OFFSET 0.090977 0.030469 -0.008868
						CHANNELS 3 Zrotation Yrotation Xrotation
						JOINT LeftForeArm
						{
							OFFSET 0.259612 -0.012772 -0.027456
							CHANNELS 3 Zrotation Yrotation Xrotation
							JOINT LeftHand
							{
								OFFSET 0.249234 0.008986 -0.001171
								CHANNELS 3 Zrotation Yrotation Xrotation
								End Site
								{
									OFFSET 0.000000 0.000000 0.000000
								}
							}
						}
					}
				}
				JOINT RightShoulder
				{
					OFFSET -0.081759 0.118833 -0.038615
					CHANNELS 3 Zrotation Yrotation Xrotation
					JOINT RightArm
					{
						OFFSET -0.096012 0.032551 -0.009143
						CHANNELS 3 Zrotation Yrotation Xrotation
						JOINT RightForeArm
						{
							OFFSET -0.253742 -0.013329 -0.021401
							CHANNELS 3 Zrotation Yrotation Xrotation
							JOINT RightHand
							{
								OFFSET -0.255298 0.007772 -0.005559
								CHANNELS 3 Zrotation Yrotation Xrotation
								End Site
								{
									OFFSET 0.000000 0.000000 0.000000
								}
							}
						}
					}
				}
			}
		}
	}
}
MOTION
Frames: 6
Frame Time: 0.050000
0.000000 0.960594 0.000000 -0.734933 3.215545 1.821018 5.405772 -0.036423 2.301046 0.616574 0.276585 -9.130820 -0.534043 5.420953 15.819721 0.000000 0.000000 0.000000 -3.474717 0.083395 -0.144879 -0.935237 -0.228285 -6.798594 1.213538 -3.384447 15.589602 0.000000 0.000000 0.000000 3.277650 -0.032145 -0.257632 -0.817697 0.439583 -1.761018 -2.149258 2.431375 5.589992 4.326792 -1.117807 -15.335084 0.000000 0.000000 0.000000 -15.032332 -9.868143 2.480840 -51.631762 -5.590214 -3.713143 -11.961542 -18.678794 2.505913 0.000000 0.000000 0.000000 15.943292 6.660443 2.980043 59.651624 11.821451 0.067065 7.092486 19.365183 1.829558 0.000000 0.000000 0.000000 
0.000674 0.959054 -0.000625 -0.822630 2.041552 2.050455 5.063381 0.006372 2.629316 1.653953 0.301881 -10.146987 -0.280881 5.477699 15.297281 0.000000 0.000000 0.000000 -3.810263 0.152760 -0.900481 -0.408602 -0.200697 -5.621893 1.663732 -2.300841 14.248088 0.000000 0.000000 0.000000 3.644677 -0.058126 0.002515 -1.654793 0.823046 -2.199441 -1.700321 2.606843 5.364000 3.818191 -0.707005 -16.510813 0.000000 0.000000 0.000000 -15.073831 -9.659856 2.492241 -51.783322 -4.785225 -4.061940 -11.618284 -18.916522 2.497880 0.000000 0.000000 0.000000 15.401665 7.439333 3.232083 60.850295 11.869200 0.193533 6.483427 19.214739 1.701521 0.000000 0.000000 0.000000 
0.001200 0.958725 -0.001227 -0.409000 2.598310 2.331343 4.941136 -0.022792 2.082687 1.172110 0.277175 -9.393719 -0.780988 4.654862 14.899616 0.000000 0.000000 0.000000 -4.219469 0.117901 -0.296845 -0.731092 -0.242396 -6.880098 1.638459 -2.458955 14.823885 0.000000 0.000000 0.000000 2.508065 -0.040844 -0.016502 -0.630476 0.394799 -3.384435 -2.360798 1.988093 5.313953 3.468675 -0.571770 -16.012407 0.000000 0.000000 0.000000 -14.323539 -9.308145 2.392337 -52.391854 -4.696738 -4.170639 -12.057274 -17.587486 2.387835 0.000000 0.000000 0.000000 15.957163 8.376175 3.713758 59.998635 11.637999 0.007988 5.465928 18.781506 1.499647 0.000000 0.000000 0.000000 
0.001676 0.958847 -0.001581 -0.324445 2.920019 2.407070 4.489725 -0.012232 1.993107 1.215062 0.301596 -10.067725 -1.094261 4.379388 15.381899 0.000000 0.000000 0.000000 -4.328589 0.121156 -0.345350 -0.453825 -0.279108 -7.360080 1.469563 -2.733404 14.878583 0.000000 0.000000 0.000000 2.351622 -0.033600 -0.104425 -0.868807 0.473662 -2.263663 -2.235090 1.157312 3.866111 2.991144 -0.449766 -15.010393 0.000000 0.000000 0.000000 -13.880360 -8.924156 2.329665 -52.598677 -3.818826 -4.457315 -12.656399 -18.906853 2.680825 0.000000 0.000000 0.000000 15.316466 8.932806 3.774435 59.706444 11.208191 -0.049406 5.460497 20.924825 1.672968 0.000000 0.000000 0.000000 
0.002040 0.959329 -0.002085 -0.152639 3.096043 2.237649 4.034313 0.023430 2.296233 1.169103 0.309241 -10.277131 -1.404282 3.841878 15.128663 0.000000 0.000000 0.000000 -4.429316 0.068149 0.455788 -0.843736 -0.286955 -7.864526 1.291676 -3.216156 15.436830 0.000000 0.000000 0.000000 1.938697 -0.044629 0.229933 -0.476194 0.321592 -3.039271 -2.682069 1.081585 4.137366 2.859176 -0.489414 -13.862369 0.000000 0.000000 0.000000 -14.094954 -8.643889 2.166517 -51.721566 -4.127520 -4.260039 -13.791236 -18.778823 2.842209 0.000000 0.000000 0.000000 15.274574 8.540179 3.605253 57.700116 11.385091 -0.059470 6.958410 25.432945 2.433411 0.000000 0.000000 0.000000 
0.002377 0.959232 -0.002708 -0.111491 3.053711 2.159635 4.055150 0.026447 2.347429 1.074217 0.320529 -10.536635 -1.133122 4.461213 15.740784 0.000000 0.000000 0.000000 -4.518370 0.081326 0.273680 -0.796394 -0.278747 -7.665614 1.220276 -3.197820 14.957371 0.000000 0.000000 0.000000 1.929393 -0.025269 -0.096859 -0.329105 0.246056 -2.728647 -2.956444 0.932576 3.667191 3.276210 -0.815231 -13.363697 0.000000 0.000000 0.000000 -13.903518 -8.698121 2.208338 -51.224064 -3.998684 -4.224264 -14.177066 -19.904660 3.082888 0.000000 0.000000 0.000000 13.362066 8.465534 3.456546 56.528969 12.612544 0.597972 9.069253 32.241412 3.796951 0.000000 0.000000 0.000000 
